<?xml version="1.0" standalone="no"?><!DOCTYPE svg PUBLIC "-//W3C//DTD SVG 1.1//EN" "http://www.w3.org/Graphics/SVG/1.1/DTD/svg11.dtd"><svg t="1640400553602" class="icon" viewBox="0 0 1024 1024" version="1.1" xmlns="http://www.w3.org/2000/svg" p-id="2042" xmlns:xlink="http://www.w3.org/1999/xlink" width="200" height="200"><defs><style type="text/css"></style></defs><path d="M702.626084 625.966635l-40.874943 0-15.347546-15.321964c51.106981-56.222489 81.776492-132.88245 81.776492-214.658941 0-183.989431-148.205437-332.193845-332.194868-332.193845S63.79035 211.997322 63.79035 395.986753c0 183.989431 148.205437 332.193845 332.193845 332.193845 81.776492 0 158.436452-30.66951 214.658941-81.775468l15.322987 15.346523 0 40.875966L881.500007 958.161503l76.660984-76.659961L702.626084 625.966635zM395.985218 625.966635c-127.766942 0-229.980905-102.21294-229.980905-229.980905 0-127.766942 102.213963-229.980905 229.980905-229.980905 127.766942 0 229.980905 102.213963 229.980905 229.980905C625.966123 523.753695 523.75216 625.966635 395.985218 625.966635z" p-id="2043"></path></svg>