<?xml version="1.0" standalone="no"?><!DOCTYPE svg PUBLIC "-//W3C//DTD SVG 1.1//EN" "http://www.w3.org/Graphics/SVG/1.1/DTD/svg11.dtd"><svg t="1640479267631" class="icon" viewBox="0 0 1024 1024" version="1.1" xmlns="http://www.w3.org/2000/svg" p-id="3562" xmlns:xlink="http://www.w3.org/1999/xlink" width="200" height="200"><defs><style type="text/css"></style></defs><path d="M512 96C282.624 96 96 282.624 96 512s186.624 416 416 416 416-186.624 416-416S741.376 96 512 96z m0 64c194.08 0 352 157.92 352 352s-157.92 352-352 352S160 706.08 160 512 317.92 160 512 160z m-128 168.576l-28 62.848L288 398.88l50.88 45.696L324.576 512 384 477.76 443.424 512l-14.304-67.424L480 398.88l-68-7.456L384 328.576z m256 0l-28 62.848-68 7.456 50.88 45.696L580.576 512 640 477.76 699.424 512l-14.304-67.424L736 398.88l-68-7.456L640 328.576zM345.92 608l-55.04 32a259.552 259.552 0 0 0 64.64 74.112 255.168 255.168 0 0 0 88.352 44.64A254.08 254.08 0 0 0 512 768c70.784 0 134.72-28.992 181.056-75.744A260.48 260.48 0 0 0 733.12 640l-55.04-32a191.872 191.872 0 0 1-217.44 89.056 189.504 189.504 0 0 1-66.4-33.504A194.112 194.112 0 0 1 345.92 608z" p-id="3563"></path></svg>